<?xml version="1.0" encoding="UTF-8"?>
<svg version="1.1" xmlns="http://www.w3.org/2000/svg" width="1024" height="1024">
<path d="M0 0 C337.92 0 675.84 0 1024 0 C1024 337.92 1024 675.84 1024 1024 C686.08 1024 348.16 1024 0 1024 C0 686.08 0 348.16 0 0 Z " fill="#FEFEFE" transform="translate(0,0)"/>
<path d="M0 0 C1.14339844 0.60199219 2.28679687 1.20398438 3.46484375 1.82421875 C18.52013502 10.05030573 32.23343642 20.58153387 45 32 C45.52899902 32.47260254 46.05799805 32.94520508 46.60302734 33.43212891 C57.65413868 43.36254549 68.53866518 53.54544964 77.7734375 65.21484375 C79.75247329 67.69037448 81.79779999 70.09004187 83.87866211 72.47998047 C104.10452005 95.82055572 120.37880158 122.89596699 135 150 C135.45987305 150.84594727 135.91974609 151.69189453 136.39355469 152.56347656 C159.95782171 196.07042048 177.40019594 242.84029151 189.21630859 290.84912109 C189.97051857 293.88146813 190.7549203 296.9041306 191.55078125 299.92578125 C197.95503443 324.41033458 202.18959285 348.97431919 205.3125 374.0625 C205.44164795 375.09802002 205.5707959 376.13354004 205.70385742 377.20043945 C206.07554817 380.20714785 206.4400518 383.21461445 206.80078125 386.22265625 C206.90779861 387.10196304 207.01481598 387.98126984 207.12507629 388.88722229 C208.64993186 401.89608214 209.17069104 414.85189551 209.203125 427.9375 C209.20595238 428.72569122 209.20877975 429.51388245 209.21169281 430.32595825 C209.22657402 434.51027746 209.23586905 438.69456328 209.24023438 442.87890625 C209.24458554 446.26443456 209.25836197 449.64970321 209.28125 453.03515625 C209.46382195 480.63868267 208.21170538 507.61008593 203.0625 534.8125 C202.79429966 536.26727932 202.52640182 537.72211443 202.25878906 539.17700195 C201.52707862 543.12226963 200.76707083 547.0614598 200 551 C199.83419434 551.87366211 199.66838867 552.74732422 199.49755859 553.64746094 C192.45915179 590.03285807 177.07217407 627.98622728 157 659 C156.33484375 660.03898438 155.6696875 661.07796875 154.984375 662.1484375 C144.44372533 678.29140097 132.25692717 693.04099258 119 707 C118.21496094 707.82757812 117.42992187 708.65515625 116.62109375 709.5078125 C111.11847448 715.15808703 105.16164645 720.08841419 99 725 C98.27941406 725.61101563 97.55882812 726.22203125 96.81640625 726.8515625 C70.00362591 749.31503266 37.37236897 765.05704379 4 775 C3.2869873 775.21462891 2.57397461 775.42925781 1.83935547 775.65039062 C-26.15033427 783.9241904 -54.68212967 787.15571017 -83.75 787.1875 C-84.57553375 787.18867828 -85.4010675 787.18985657 -86.25161743 787.19107056 C-157.1179038 787.17961706 -226.96323409 765.6189238 -279.76171875 717.0546875 C-281.87039527 715.11897397 -284.01786328 713.24180024 -286.1875 711.375 C-292.65860853 705.72252568 -298.47788252 699.5759567 -304 693 C-305.26070312 691.515 -305.26070312 691.515 -306.546875 690 C-363.07832378 622.14855212 -381.47323114 533.845515 -381.31567383 447.55883789 C-381.3110302 444.80932304 -381.31804494 442.06024947 -381.33618164 439.31079102 C-381.46200165 420.01901484 -380.38190829 401.16581901 -378 382 C-377.81859928 380.46294377 -377.63817616 378.92577148 -377.45922852 377.38842773 C-372.45437581 335.6632766 -363.78903186 295.01838032 -351 255 C-350.64470215 253.87126465 -350.2894043 252.7425293 -349.92333984 251.57958984 C-339.96143568 220.04494764 -327.21652505 189.47562991 -312.06738281 160.07714844 C-311.31163545 158.60644885 -310.56153957 157.13283878 -309.81542969 155.65722656 C-291.70904131 119.85117735 -269.03652603 86.65598184 -242 57 C-240.45801971 55.271113 -238.91635099 53.54194806 -237.375 51.8125 C-231.93199052 45.77519313 -226.29920222 40.15154536 -220.12890625 34.859375 C-218.69461149 33.60666986 -217.28574438 32.32431684 -215.90234375 31.015625 C-203.39244098 19.25674556 -188.77746636 9.66474484 -174 1 C-173.39655762 0.64599121 -172.79311523 0.29198242 -172.17138672 -0.07275391 C-117.82626603 -31.48296605 -54.52288863 -29.36524494 0 0 Z " fill="#E8D0B7" transform="translate(598,130)"/>
<path d="M0 0 C-0.65484375 0.81339844 -1.3096875 1.62679687 -1.984375 2.46484375 C-49.97847787 62.53315877 -84.74905401 136.29363442 -103.18774414 210.87890625 C-103.80173774 213.23817712 -104.44573421 215.5768066 -105.12280273 217.91796875 C-108.54846026 229.79613806 -111.18067653 241.74741847 -113.5625 253.875 C-113.75765198 254.86066956 -113.95280396 255.84633911 -114.15386963 256.86187744 C-117.31205842 272.85572088 -120.05744863 288.80865625 -122 305 C-122.13343307 306.10795929 -122.26686615 307.21591858 -122.40434265 308.35745239 C-124.84930849 329.29820104 -125.53012605 350.02221967 -125.44683075 371.09178162 C-125.43734467 373.60362982 -125.43250922 376.11545722 -125.42828369 378.62731934 C-125.37383756 402.60360038 -124.94686879 426.29524144 -121 450 C-120.88638123 450.69798706 -120.77276245 451.39597412 -120.65570068 452.1151123 C-119.02309497 462.13402817 -117.11762591 472.07153063 -115 482 C-114.8138916 482.90669434 -114.6277832 483.81338867 -114.43603516 484.74755859 C-108.96956244 511.01278299 -98.96940275 537.0790793 -87 561 C-86.58540527 561.84401367 -86.17081055 562.68802734 -85.74365234 563.55761719 C-77.55015159 580.16545027 -67.42306705 595.43872772 -56 610 C-55.29617188 610.8971875 -54.59234375 611.794375 -53.8671875 612.71875 C-47.92191422 620.13435969 -41.5414637 627.11210364 -35 634 C-34.21496094 634.82757812 -33.42992187 635.65515625 -32.62109375 636.5078125 C-27.11847448 642.15808703 -21.16164645 647.08841419 -15 652 C-14.27941406 652.61101563 -13.55882812 653.22203125 -12.81640625 653.8515625 C28.03171524 688.07369637 83.18250265 708.23113472 136 712 C136.99692871 712.0839502 137.99385742 712.16790039 139.02099609 712.25439453 C148.64578565 713.02686508 158.22487014 713.24057341 167.875 713.25 C168.69349426 713.25133942 169.51198853 713.25267883 170.35528564 713.25405884 C192.21251915 713.24638926 214.69323918 712.16738949 236 707 C236.96115723 706.77328613 237.92231445 706.54657227 238.91259766 706.31298828 C252.37074457 703.10502359 265.47721269 699.44074237 278.37353516 694.40161133 C279.22093262 694.07314209 280.06833008 693.74467285 280.94140625 693.40625 C281.68076416 693.11041016 282.42012207 692.81457031 283.18188477 692.50976562 C285 692 285 692 287 693 C280.78085931 701.10317449 274.02862952 708.60334163 267 716 C265.82050781 717.24330078 265.82050781 717.24330078 264.6171875 718.51171875 C259.11603613 724.16075054 253.16013373 729.08962002 247 734 C246.27941406 734.61101563 245.55882812 735.22203125 244.81640625 735.8515625 C218.00362591 758.31503266 185.37236897 774.05704379 152 784 C151.2869873 784.21462891 150.57397461 784.42925781 149.83935547 784.65039062 C121.84966573 792.9241904 93.31787033 796.15571017 64.25 796.1875 C63.42446625 796.18867828 62.5989325 796.18985657 61.74838257 796.19107056 C-9.1179038 796.17961706 -78.96323409 774.6189238 -131.76171875 726.0546875 C-133.87039527 724.11897397 -136.01786328 722.24180024 -138.1875 720.375 C-144.65860853 714.72252568 -150.47788252 708.5759567 -156 702 C-157.26070312 700.515 -157.26070312 700.515 -158.546875 699 C-215.07832378 631.14855212 -233.47323114 542.845515 -233.31567383 456.55883789 C-233.3110302 453.80932304 -233.31804494 451.06024947 -233.33618164 448.31079102 C-233.46200165 429.01901484 -232.38190829 410.16581901 -230 391 C-229.81859928 389.46294377 -229.63817616 387.92577148 -229.45922852 386.38842773 C-224.45437581 344.6632766 -215.78903186 304.01838032 -203 264 C-202.64470215 262.87126465 -202.2894043 261.7425293 -201.92333984 260.57958984 C-191.96143568 229.04494764 -179.21652505 198.47562991 -164.06738281 169.07714844 C-163.31163545 167.60644885 -162.56153957 166.13283878 -161.81542969 164.65722656 C-143.70904131 128.85117735 -121.03652603 95.65598184 -94 66 C-92.45801971 64.271113 -90.91635099 62.54194806 -89.375 60.8125 C-83.93199052 54.77519313 -78.29920222 49.15154536 -72.12890625 43.859375 C-70.69461149 42.60666986 -69.28574438 41.32431684 -67.90234375 40.015625 C-51.36761843 24.47355043 -31.2650776 12.07437267 -11 2 C-10.08565186 1.54343018 -10.08565186 1.54343018 -9.15283203 1.07763672 C-5.78112026 -0.50646716 -3.53792016 -1.55668487 0 0 Z " fill="#DEBA94" transform="translate(450,121)"/>
<path d="M0 0 C1.22930963 1.0594708 2.43667449 2.14475657 3.625 3.25 C4.78515625 4.23806641 4.78515625 4.23806641 5.96875 5.24609375 C25.5396187 22.18939211 44.23558874 48.57252346 46.81787109 75.24194336 C47.24298809 86.31173235 46.7312314 95.15911415 41.625 105.25 C41.17898438 106.20261719 40.73296875 107.15523438 40.2734375 108.13671875 C36.75546263 115.18249524 32.16368345 120.69288499 26.625 126.25 C25.90183594 126.99636719 25.17867187 127.74273437 24.43359375 128.51171875 C17.73849301 134.99123485 10.55308046 138.31877903 1.1875 138.75 C-9.67492419 138.25484676 -18.90421698 134.14342299 -26.375 126.25 C-29.21724872 122.4794572 -31.66428564 118.53050131 -34.06005859 114.47021484 C-35.51439318 112.01464137 -36.99880668 109.57894615 -38.48828125 107.14453125 C-40.8518786 103.27961504 -43.20660067 99.40951516 -45.5546875 95.53515625 C-49.52933988 88.98533339 -53.54335086 82.460084 -57.5625 75.9375 C-58.5673645 74.30470093 -58.5673645 74.30470093 -59.5925293 72.63891602 C-62.64284808 67.6825691 -65.69691499 62.72865387 -68.76171875 57.78125 C-69.75790312 56.16672258 -70.75400313 54.5521431 -71.75 52.9375 C-72.19625732 52.22102295 -72.64251465 51.5045459 -73.10229492 50.76635742 C-78.72817972 41.6244338 -80.76032975 32.43488401 -78.94921875 21.734375 C-76.51000503 12.21695214 -71.208174 4.5624044 -62.7578125 -0.5078125 C-44.38332071 -10.08664593 -17.74411957 -12.65417292 0 0 Z " fill="#F1E2D3" transform="translate(574.375,141.75)"/>
<path d="M0 0 C3.56305321 0.86377048 5.00004452 2.77316495 7.44921875 5.46875 C13.27072563 11.61953213 19.57972344 16.66419706 26.44921875 21.59375 C27.30725098 22.21830078 27.30725098 22.21830078 28.18261719 22.85546875 C52.44873027 40.37126387 84.17856051 51.97035058 114.47412109 47.28027344 C118.92740037 46.41074425 123.16835836 45.07932425 127.44921875 43.59375 C128.69316406 43.16964844 129.93710937 42.74554687 131.21875 42.30859375 C149.94271026 35.56228391 166.94108987 22.60458851 178.8671875 6.703125 C181.92138612 2.68098035 181.92138612 2.68098035 184.765625 2.2109375 C188.272848 2.71124005 189.9588583 4.06188622 192.69921875 6.28125 C193.570625 6.96574219 194.44203125 7.65023437 195.33984375 8.35546875 C197.74608482 10.90875789 198.40093142 12.10096619 198.44921875 15.59375 C189.77896548 36.48269996 164.55426762 54.17266151 144.44921875 62.59375 C121.61652827 71.52900993 98.67488207 74.1226177 74.44921875 69.59375 C73.69656738 69.46436035 72.94391602 69.3349707 72.16845703 69.20166016 C38.71858977 63.26321833 10.17256929 43.15224049 -12.55078125 18.59375 C-14.00123138 15.69284974 -13.93857474 13.8136111 -13.55078125 10.59375 C-11.3203125 7.8203125 -11.3203125 7.8203125 -8.36328125 5.21875 C-7.40035156 4.34476563 -6.43742187 3.47078125 -5.4453125 2.5703125 C-2.55078125 0.59375 -2.55078125 0.59375 0 0 Z " fill="#020202" transform="translate(422.55078125,540.40625)"/>
<path d="M0 0 C1.9296875 1.08984375 1.9296875 1.08984375 4.7421875 3.08984375 C4.7421875 3.41984375 4.7421875 3.74984375 4.7421875 4.08984375 C3.6903125 4.29609375 2.6384375 4.50234375 1.5546875 4.71484375 C-2.95582189 5.99571863 -4.65240789 8.25836639 -7.2578125 12.08984375 C-10.30231905 19.1156281 -7.77257773 27.30689899 -5.2578125 34.08984375 C-3.43033075 38.28543727 -1.41896008 40.00926996 2.7421875 42.08984375 C6.34272735 42.32125841 9.55276674 41.88279092 12.6171875 39.83984375 C16.00340576 34.57239312 16.29124498 29.20130155 16.7421875 23.08984375 C21.62308642 31.48655139 19.9491826 46.50147987 17.8671875 55.69140625 C15.19775233 65.12889697 10.04327332 73.62860308 1.7421875 79.08984375 C-2.43255952 81.34646376 -6.59716082 81.77167983 -11.2578125 81.08984375 C-18.39081811 78.81653853 -23.95696278 74.04306522 -27.69921875 67.61328125 C-34.64011238 53.23423593 -36.53366592 37.59234549 -32.2578125 22.08984375 C-28.61421519 13.05240149 -24.17536747 5.03648739 -15.56640625 0.0078125 C-10.5414457 -1.99026826 -5.0214707 -2.02422608 0 0 Z " fill="#020202" transform="translate(415.2578125,404.91015625)"/>
<path d="M0 0 C1.9140625 1.1015625 1.9140625 1.1015625 4.7265625 3.1015625 C4.7265625 3.4315625 4.7265625 3.7615625 4.7265625 4.1015625 C3.6540625 4.3490625 2.5815625 4.5965625 1.4765625 4.8515625 C-3.18107929 6.40410976 -5.11755833 8.07877395 -7.5234375 12.2890625 C-9.83364793 20.9523516 -7.61820613 29.09228406 -3.8984375 37.0390625 C-1.83824681 39.65391991 -0.3840472 40.85731862 2.7265625 42.1015625 C5.61326793 42.3488301 8.00428952 42.11171411 10.7265625 41.1015625 C14.82990983 36.78224952 15.76390833 31.80148853 16.7265625 26.1015625 C19.58883292 28.96383292 19.0139656 31.21966513 19.0559082 35.13574219 C19.05034912 36.07321289 19.04479004 37.01068359 19.0390625 37.9765625 C19.03169067 39.40597168 19.03169067 39.40597168 19.02416992 40.86425781 C18.8012075 54.30603341 15.4297716 65.59893222 6.25 75.6640625 C1.63583436 80.01794187 -4.08578666 81.27985074 -10.2734375 81.1015625 C-17.52326352 79.52946761 -22.72398101 75.49564598 -26.8359375 69.3515625 C-33.55328598 58.33687099 -35.24272265 45.82535328 -34.2734375 33.1015625 C-34.20253906 32.16957031 -34.13164063 31.23757813 -34.05859375 30.27734375 C-32.67751831 19.64771817 -27.6361166 9.02767144 -19.16796875 2.3359375 C-13.32125837 -1.47346555 -6.69685116 -2.64652194 0 0 Z " fill="#020202" transform="translate(623.2734375,404.8984375)"/>
<path d="M0 0 C5.42770745 2.60947474 7.53620817 5.70741015 10 11 C11.76964324 17.48869189 12.05328531 25.19123917 9.6875 31.5 C9.130625 32.325 8.57375 33.15 8 34 C7.608125 34.598125 7.21625 35.19625 6.8125 35.8125 C3.72259021 37.83692366 0.6023921 38.29799199 -3 38 C-6.98624089 36.54534354 -9.30545723 34.30489854 -11.2890625 30.578125 C-14.50282569 22.76336271 -16.49768278 15.49304834 -13.75 7.25 C-10.351999 0.93942671 -7.35920379 -1.37807484 0 0 Z " fill="#FBFBFB" transform="translate(421,410)"/>
<path d="M0 0 C4.66842487 1.6285203 6.79129308 4.95576381 8.984375 9.203125 C11.43007788 15.93821447 12.1234126 23.84500199 9.75 30.6875 C8.25666002 33.51417924 7.37742718 35.01690569 5 37 C1.25171474 37.99954274 -1.287191 38.65611635 -4.9375 37.2578125 C-10.86397484 33.55376573 -12.81670003 27.94433324 -14.75 21.5 C-15.48970129 14.10298711 -15.50334166 8.28058017 -11 2 C-7.27095816 -0.48602789 -4.31575678 -0.50873361 0 0 Z " fill="#FCFCFC" transform="translate(629,410)"/>
</svg>
